<?xml version="1.0" encoding="utf-8"?>
<!-- Generator: Adobe Illustrator 22.1.0, SVG Export Plug-In . SVG Version: 6.00 Build 0)  -->
<svg version="1.1" id="图层_1" xmlns="http://www.w3.org/2000/svg" xmlns:xlink="http://www.w3.org/1999/xlink" x="0px" y="0px"
	 viewBox="0 0 195.3 67" style="enable-background:new 0 0 195.3 67;" xml:space="preserve">
<style type="text/css">
	.st0{fill:url(#SVGID_1_);}
	.st1{fill:url(#SVGID_2_);}
	.st2{fill:url(#SVGID_3_);}
	.st3{fill:url(#SVGID_4_);}
	.st4{fill:url(#SVGID_5_);}
	.st5{fill:url(#SVGID_6_);}
	.st6{fill:url(#SVGID_7_);}
	.st7{fill:url(#SVGID_8_);}
	.st8{fill:url(#SVGID_9_);}
	.st9{fill:url(#SVGID_10_);}
	.st10{fill:url(#SVGID_11_);}
	.st11{fill:url(#SVGID_12_);}
	.st12{fill:url(#SVGID_13_);}
	.st13{fill:url(#SVGID_14_);}
</style>
<title>Combined Shape</title>
<desc>Created with Sketch.</desc>
<g>
	<g>
		<g>
			<g>
				<linearGradient id="SVGID_1_" gradientUnits="userSpaceOnUse" x1="0" y1="29.2125" x2="193.6667" y2="29.2125">
					<stop  offset="0" style="stop-color:#77B7E5"/>
					<stop  offset="8.506916e-02" style="stop-color:#6EB2E2"/>
					<stop  offset="0.2265" style="stop-color:#54A4DA"/>
					<stop  offset="0.4057" style="stop-color:#2B8DCD"/>
					<stop  offset="0.5674" style="stop-color:#0076BF"/>
					<stop  offset="1" style="stop-color:#004DA1"/>
				</linearGradient>
				<path class="st0" d="M174.6,34.2c0,2.9,0.6,5.2,1.8,6.8c1.1,1.6,2.8,2.4,5.1,2.4c3.9,0,6-1.9,6.5-5.8h5.8c-0.6,3.6-2,6.2-4.1,8
					c-2,1.7-4.8,2.6-8.2,2.6c-4.1,0-7.2-1.3-9.5-4c-2.2-2.6-3.3-5.9-3.3-9.9c0-4,1.1-7.2,3.2-9.7c2.3-2.8,5.5-4.1,9.6-4.1
					c3.4,0,6.1,0.8,8.2,2.3c2.1,1.6,3.4,4.1,3.9,7.4h-5.8c-0.3-1.7-1.1-2.9-2.1-3.7c-1.1-0.8-2.5-1.2-4.2-1.2c-2.1,0-3.8,0.8-5,2.4
					C175.2,29,174.6,31.3,174.6,34.2z"/>
				<linearGradient id="SVGID_2_" gradientUnits="userSpaceOnUse" x1="0" y1="29.2125" x2="193.6667" y2="29.2125">
					<stop  offset="0" style="stop-color:#77B7E5"/>
					<stop  offset="8.506916e-02" style="stop-color:#6EB2E2"/>
					<stop  offset="0.2265" style="stop-color:#54A4DA"/>
					<stop  offset="0.4057" style="stop-color:#2B8DCD"/>
					<stop  offset="0.5674" style="stop-color:#0076BF"/>
					<stop  offset="1" style="stop-color:#004DA1"/>
				</linearGradient>
				<path class="st1" d="M156.9,40.5c1.1-1.7,1.7-3.8,1.7-6.3c0-2.6-0.6-4.7-1.7-6.3c-1.3-1.9-3.2-2.8-5.6-2.8
					c-2.4,0-4.3,0.9-5.6,2.8c-1.1,1.6-1.7,3.8-1.7,6.3s0.6,4.7,1.7,6.3c1.3,1.9,3.2,2.9,5.6,2.9C153.7,43.4,155.5,42.4,156.9,40.5z
					 M164.5,34.3c0,4-1.2,7.3-3.6,9.9c-2.4,2.7-5.7,4-9.7,4c-4,0-7.2-1.3-9.7-4c-2.4-2.6-3.6-5.9-3.6-9.9c0-4.1,1.2-7.4,3.6-10
					c2.4-2.7,5.6-3.9,9.6-3.9c4,0,7.2,1.3,9.7,3.9C163.3,26.9,164.5,30.2,164.5,34.3z"/>
				<linearGradient id="SVGID_3_" gradientUnits="userSpaceOnUse" x1="0" y1="29.2125" x2="193.6667" y2="29.2125">
					<stop  offset="0" style="stop-color:#77B7E5"/>
					<stop  offset="8.506916e-02" style="stop-color:#6EB2E2"/>
					<stop  offset="0.2265" style="stop-color:#54A4DA"/>
					<stop  offset="0.4057" style="stop-color:#2B8DCD"/>
					<stop  offset="0.5674" style="stop-color:#0076BF"/>
					<stop  offset="1" style="stop-color:#004DA1"/>
				</linearGradient>
				<path class="st2" d="M115.2,24.6c1.2-1.6,2.5-2.8,3.8-3.4c1.2-0.6,2.7-0.9,4.4-0.9c2.7,0,5,0.9,6.8,2.7c1.7,1.8,2.7,4.2,2.7,7.1
					v17.3h-5.8V31.2c0-2.1-0.5-3.6-1.3-4.5c-0.9-1-2.3-1.4-4.4-1.4c-1.4,0-2.6,0.5-3.6,1.6c-1,1.1-1.5,2.6-1.5,4.5v16.1h-5.8V31.2
					c0-4-1.7-6-5.2-6c-1.7,0-3,0.6-4,1.9c-1,1.2-1.5,2.8-1.5,4.5v15.8h-5.8V21h5.8v2.7c2.2-2.3,4.6-3.4,7.1-3.4
					C110.7,20.3,113.5,21.8,115.2,24.6z"/>
				<linearGradient id="SVGID_4_" gradientUnits="userSpaceOnUse" x1="0" y1="29.2125" x2="193.6667" y2="29.2125">
					<stop  offset="0" style="stop-color:#77B7E5"/>
					<stop  offset="8.506916e-02" style="stop-color:#6EB2E2"/>
					<stop  offset="0.2265" style="stop-color:#54A4DA"/>
					<stop  offset="0.4057" style="stop-color:#2B8DCD"/>
					<stop  offset="0.5674" style="stop-color:#0076BF"/>
					<stop  offset="1" style="stop-color:#004DA1"/>
				</linearGradient>
				<path class="st3" d="M87.8,30.1v17.3H82V31.2c0-2.1-0.5-3.6-1.3-4.5c-0.9-1-2.3-1.4-4.4-1.4c-1.4,0-2.6,0.5-3.6,1.6
					c-1,1.1-1.5,2.6-1.5,4.5v16.1h-5.8V31.2c0-4-1.7-6-5.2-6c-1.7,0-3,0.6-4,1.9c-1,1.2-1.5,2.8-1.5,4.5v15.8h-5.8V21h5.8v2.7
					c2.2-2.3,4.6-3.4,7.1-3.4c3.9,0,6.6,1.4,8.3,4.3c1.2-1.6,2.5-2.8,3.8-3.4c1.2-0.6,2.7-0.9,4.5-0.9c2.7,0,4.9,0.9,6.8,2.7
					C86.9,24.9,87.8,27.2,87.8,30.1z"/>
				<linearGradient id="SVGID_5_" gradientUnits="userSpaceOnUse" x1="0" y1="29.2125" x2="193.6667" y2="29.2125">
					<stop  offset="0" style="stop-color:#77B7E5"/>
					<stop  offset="8.506916e-02" style="stop-color:#6EB2E2"/>
					<stop  offset="0.2265" style="stop-color:#54A4DA"/>
					<stop  offset="0.4057" style="stop-color:#2B8DCD"/>
					<stop  offset="0.5674" style="stop-color:#0076BF"/>
					<stop  offset="1" style="stop-color:#004DA1"/>
				</linearGradient>
				<rect x="35.8" y="21" class="st4" width="5.8" height="26.4"/>
				<linearGradient id="SVGID_6_" gradientUnits="userSpaceOnUse" x1="0" y1="29.2125" x2="193.6667" y2="29.2125">
					<stop  offset="0" style="stop-color:#77B7E5"/>
					<stop  offset="8.506916e-02" style="stop-color:#6EB2E2"/>
					<stop  offset="0.2265" style="stop-color:#54A4DA"/>
					<stop  offset="0.4057" style="stop-color:#2B8DCD"/>
					<stop  offset="0.5674" style="stop-color:#0076BF"/>
					<stop  offset="1" style="stop-color:#004DA1"/>
				</linearGradient>
				<path class="st5" d="M41.5,11.4c0.7,0.7,1.1,1.6,1.1,2.8s-0.4,2.1-1.2,2.8c-0.8,0.7-1.7,1.1-2.8,1.1c-1.1,0-2-0.3-2.8-1.1
					c-0.8-0.8-1.1-1.7-1.1-2.8s0.3-2,1.1-2.8c0.8-0.7,1.7-1.1,2.8-1.1C39.8,10.3,40.8,10.6,41.5,11.4z"/>
				<linearGradient id="SVGID_7_" gradientUnits="userSpaceOnUse" x1="0" y1="29.2125" x2="193.6667" y2="29.2125">
					<stop  offset="0" style="stop-color:#77B7E5"/>
					<stop  offset="8.506916e-02" style="stop-color:#6EB2E2"/>
					<stop  offset="0.2265" style="stop-color:#54A4DA"/>
					<stop  offset="0.4057" style="stop-color:#2B8DCD"/>
					<stop  offset="0.5674" style="stop-color:#0076BF"/>
					<stop  offset="1" style="stop-color:#004DA1"/>
				</linearGradient>
				<path class="st6" d="M25.4,29.7c3.2,1.9,4.8,4.5,4.8,7.9c0,3.3-1.3,5.9-3.8,7.8c-2.6,1.8-6.2,2.8-10.8,2.8
					c-4.5,0-8-0.9-10.5-2.6C1.9,43.4,0.3,40,0,35.4h5.9c0.4,2.8,1.4,4.8,3,5.9c1.4,1,3.6,1.6,6.6,1.6c2.7,0,4.8-0.5,6.3-1.3
					c1.5-0.9,2.3-2.1,2.3-3.6c0-1.9-1.2-3.5-3.4-4.6c-0.7-0.3-3.1-1.2-7.1-2.4c-4.5-1.4-7.3-2.4-8.4-3.1c-2.8-1.7-4.2-4.1-4.2-7.3
					c0-3.2,1.3-5.8,4.1-7.6c2.6-1.8,5.8-2.7,9.7-2.7c4.3,0,7.7,0.9,10.1,2.7c2.6,1.9,4,4.8,4.4,8.8h-5.9c-0.5-2.2-1.5-3.9-2.8-4.8
					c-1.3-1-3.4-1.5-6-1.5c-2.3,0-4,0.3-5.2,1c-1.5,0.8-2.2,2-2.2,3.8c0,1.5,0.8,2.8,2.6,3.7c0.8,0.4,2.9,1.2,6.2,2.2
					C20.8,27.7,24,28.9,25.4,29.7z"/>
			</g>
		</g>
	</g>
	<g>
		<g>
			<g>
				<linearGradient id="SVGID_8_" gradientUnits="userSpaceOnUse" x1="168.6085" y1="34.2346" x2="193.6768" y2="34.2346">
					<stop  offset="0" style="stop-color:#77B7E5"/>
					<stop  offset="8.506916e-02" style="stop-color:#6EB2E2"/>
					<stop  offset="0.2265" style="stop-color:#54A4DA"/>
					<stop  offset="0.4057" style="stop-color:#2B8DCD"/>
					<stop  offset="0.5674" style="stop-color:#0076BF"/>
					<stop  offset="1" style="stop-color:#004DA1"/>
				</linearGradient>
				<path class="st7" d="M174.6,34.2c0,2.9,0.6,5.2,1.8,6.8c1.1,1.6,2.8,2.4,5.1,2.4c3.9,0,6-1.9,6.5-5.8h5.8c-0.6,3.6-2,6.2-4.1,8
					c-2,1.7-4.8,2.6-8.2,2.6c-4.1,0-7.2-1.3-9.5-4c-2.2-2.6-3.3-5.9-3.3-9.9c0-4,1.1-7.2,3.2-9.7c2.3-2.8,5.5-4.1,9.6-4.1
					c3.4,0,6.1,0.8,8.2,2.3c2.1,1.6,3.4,4.1,3.9,7.4h-5.8c-0.3-1.7-1.1-2.9-2.1-3.7c-1.1-0.8-2.5-1.2-4.2-1.2c-2.1,0-3.8,0.8-5,2.4
					C175.2,29,174.6,31.3,174.6,34.2z"/>
				<linearGradient id="SVGID_9_" gradientUnits="userSpaceOnUse" x1="137.9877" y1="34.2346" x2="164.5257" y2="34.2346">
					<stop  offset="0" style="stop-color:#77B7E5"/>
					<stop  offset="8.506916e-02" style="stop-color:#6EB2E2"/>
					<stop  offset="0.2265" style="stop-color:#54A4DA"/>
					<stop  offset="0.4057" style="stop-color:#2B8DCD"/>
					<stop  offset="0.5674" style="stop-color:#0076BF"/>
					<stop  offset="1" style="stop-color:#004DA1"/>
				</linearGradient>
				<path class="st8" d="M156.9,40.5c1.1-1.7,1.7-3.8,1.7-6.3c0-2.6-0.6-4.7-1.7-6.3c-1.3-1.9-3.2-2.8-5.6-2.8
					c-2.4,0-4.3,0.9-5.6,2.8c-1.1,1.6-1.7,3.8-1.7,6.3s0.6,4.7,1.7,6.3c1.3,1.9,3.2,2.9,5.6,2.9C153.7,43.4,155.5,42.4,156.9,40.5z
					 M164.5,34.3c0,4-1.2,7.3-3.6,9.9c-2.4,2.7-5.7,4-9.7,4c-4,0-7.2-1.3-9.7-4c-2.4-2.6-3.6-5.9-3.6-9.9c0-4.1,1.2-7.4,3.6-10
					c2.4-2.7,5.6-3.9,9.6-3.9c4,0,7.2,1.3,9.7,3.9C163.3,26.9,164.5,30.2,164.5,34.3z"/>
				<linearGradient id="SVGID_10_" gradientUnits="userSpaceOnUse" x1="93.8937" y1="33.8773" x2="132.8842" y2="33.8773">
					<stop  offset="0" style="stop-color:#77B7E5"/>
					<stop  offset="8.506916e-02" style="stop-color:#6EB2E2"/>
					<stop  offset="0.2265" style="stop-color:#54A4DA"/>
					<stop  offset="0.4057" style="stop-color:#2B8DCD"/>
					<stop  offset="0.5674" style="stop-color:#0076BF"/>
					<stop  offset="1" style="stop-color:#004DA1"/>
				</linearGradient>
				<path class="st9" d="M115.2,24.6c1.2-1.6,2.5-2.8,3.8-3.4c1.2-0.6,2.7-0.9,4.4-0.9c2.7,0,5,0.9,6.8,2.7c1.7,1.8,2.7,4.2,2.7,7.1
					v17.3h-5.8V31.2c0-2.1-0.5-3.6-1.3-4.5c-0.9-1-2.3-1.4-4.4-1.4c-1.4,0-2.6,0.5-3.6,1.6c-1,1.1-1.5,2.6-1.5,4.5v16.1h-5.8V31.2
					c0-4-1.7-6-5.2-6c-1.7,0-3,0.6-4,1.9c-1,1.2-1.5,2.8-1.5,4.5v15.8h-5.8V21h5.8v2.7c2.2-2.3,4.6-3.4,7.1-3.4
					C110.7,20.3,113.5,21.8,115.2,24.6z"/>
				<linearGradient id="SVGID_11_" gradientUnits="userSpaceOnUse" x1="48.7791" y1="33.8773" x2="87.7696" y2="33.8773">
					<stop  offset="0" style="stop-color:#77B7E5"/>
					<stop  offset="8.506916e-02" style="stop-color:#6EB2E2"/>
					<stop  offset="0.2265" style="stop-color:#54A4DA"/>
					<stop  offset="0.4057" style="stop-color:#2B8DCD"/>
					<stop  offset="0.5674" style="stop-color:#0076BF"/>
					<stop  offset="1" style="stop-color:#004DA1"/>
				</linearGradient>
				<path class="st10" d="M87.8,30.1v17.3H82V31.2c0-2.1-0.5-3.6-1.3-4.5c-0.9-1-2.3-1.4-4.4-1.4c-1.4,0-2.6,0.5-3.6,1.6
					c-1,1.1-1.5,2.6-1.5,4.5v16.1h-5.8V31.2c0-4-1.7-6-5.2-6c-1.7,0-3,0.6-4,1.9c-1,1.2-1.5,2.8-1.5,4.5v15.8h-5.8V21h5.8v2.7
					c2.2-2.3,4.6-3.4,7.1-3.4c3.9,0,6.6,1.4,8.3,4.3c1.2-1.6,2.5-2.8,3.8-3.4c1.2-0.6,2.7-0.9,4.5-0.9c2.7,0,4.9,0.9,6.8,2.7
					C86.9,24.9,87.8,27.2,87.8,30.1z"/>
				<linearGradient id="SVGID_12_" gradientUnits="userSpaceOnUse" x1="35.7754" y1="34.2346" x2="41.5934" y2="34.2346">
					<stop  offset="0" style="stop-color:#77B7E5"/>
					<stop  offset="8.506916e-02" style="stop-color:#6EB2E2"/>
					<stop  offset="0.2265" style="stop-color:#54A4DA"/>
					<stop  offset="0.4057" style="stop-color:#2B8DCD"/>
					<stop  offset="0.5674" style="stop-color:#0076BF"/>
					<stop  offset="1" style="stop-color:#004DA1"/>
				</linearGradient>
				<rect x="35.8" y="21" class="st11" width="5.8" height="26.4"/>
				<linearGradient id="SVGID_13_" gradientUnits="userSpaceOnUse" x1="34.7547" y1="14.1371" x2="42.6549" y2="14.1371">
					<stop  offset="0" style="stop-color:#77B7E5"/>
					<stop  offset="8.506916e-02" style="stop-color:#6EB2E2"/>
					<stop  offset="0.2265" style="stop-color:#54A4DA"/>
					<stop  offset="0.4057" style="stop-color:#2B8DCD"/>
					<stop  offset="0.5674" style="stop-color:#0076BF"/>
					<stop  offset="1" style="stop-color:#004DA1"/>
				</linearGradient>
				<path class="st12" d="M41.5,11.4c0.7,0.7,1.1,1.6,1.1,2.8s-0.4,2.1-1.2,2.8c-0.8,0.7-1.7,1.1-2.8,1.1c-1.1,0-2-0.3-2.8-1.1
					c-0.8-0.8-1.1-1.7-1.1-2.8s0.3-2,1.1-2.8c0.8-0.7,1.7-1.1,2.8-1.1C39.8,10.3,40.8,10.6,41.5,11.4z"/>
				<linearGradient id="SVGID_14_" gradientUnits="userSpaceOnUse" x1="-1.008732e-02" y1="29.2127" x2="30.1616" y2="29.2127">
					<stop  offset="0" style="stop-color:#77B7E5"/>
					<stop  offset="8.506916e-02" style="stop-color:#6EB2E2"/>
					<stop  offset="0.2265" style="stop-color:#54A4DA"/>
					<stop  offset="0.4057" style="stop-color:#2B8DCD"/>
					<stop  offset="0.5674" style="stop-color:#0076BF"/>
					<stop  offset="1" style="stop-color:#004DA1"/>
				</linearGradient>
				<path class="st13" d="M25.4,29.7c3.2,1.9,4.8,4.5,4.8,7.9c0,3.3-1.3,5.9-3.8,7.8c-2.6,1.8-6.2,2.8-10.8,2.8
					c-4.5,0-8-0.9-10.5-2.6C1.9,43.4,0.3,40,0,35.4h5.9c0.4,2.8,1.4,4.8,3,5.9c1.4,1,3.6,1.6,6.6,1.6c2.7,0,4.8-0.5,6.3-1.3
					c1.5-0.9,2.3-2.1,2.3-3.6c0-1.9-1.2-3.5-3.4-4.6c-0.7-0.3-3.1-1.2-7.1-2.4c-4.5-1.4-7.3-2.4-8.4-3.1c-2.8-1.7-4.2-4.1-4.2-7.3
					c0-3.2,1.3-5.8,4.1-7.6c2.6-1.8,5.8-2.7,9.7-2.7c4.3,0,7.7,0.9,10.1,2.7c2.6,1.9,4,4.8,4.4,8.8h-5.9c-0.5-2.2-1.5-3.9-2.8-4.8
					c-1.3-1-3.4-1.5-6-1.5c-2.3,0-4,0.3-5.2,1c-1.5,0.8-2.2,2-2.2,3.8c0,1.5,0.8,2.8,2.6,3.7c0.8,0.4,2.9,1.2,6.2,2.2
					C20.8,27.7,24,28.9,25.4,29.7z"/>
			</g>
		</g>
	</g>
</g>
</svg>
