
<svg width="359px" height="128px" viewBox="0 0 359 128" version="1.1" xmlns="http://www.w3.org/2000/svg" xmlns:xlink="http://www.w3.org/1999/xlink">
    <!-- Generator: Sketch 49.2 (51160) - http://www.bohemiancoding.com/sketch -->
    <desc>Created with Sketch.</desc>
    <defs>
        <path d="M313.890203,49.3741827 C317.415337,52.1329833 319.714337,56.4244509 320.480671,62.0953188 L314.963069,62.0953188 C314.350003,58.1103846 312.817336,55.0450506 310.211802,53.0525835 C307.606268,51.0601164 304.2344,49.9872495 300.096199,49.9872495 C295.191665,49.9872495 291.053464,51.9797166 288.141397,55.8113841 C285.22933,59.4897849 283.849929,64.3943193 283.849929,70.678254 C283.849929,76.8089221 285.22933,81.5601898 287.98813,85.2385906 C290.746931,88.7637247 294.731865,90.6029251 300.096199,90.6029251 C308.985668,90.6029251 314.043469,86.1581908 315.42287,77.1154555 L320.787204,77.1154555 C319.867604,83.0928568 317.568603,87.6908578 314.043469,90.7561918 C310.518335,93.8215258 305.920334,95.3541928 300.096199,95.3541928 C293.045931,95.3541928 287.52833,92.9019256 283.696663,88.1506579 C280.018262,83.7059236 278.332328,77.881789 278.332328,70.5249873 C278.332328,63.3214524 280.171528,57.3440511 284.003196,52.7460501 C287.98813,47.688249 293.352465,45.2359818 300.249466,45.2359818 C305.613801,45.2359818 310.211802,46.6153821 313.890203,49.3741827 Z" id="path-1"></path>
        <filter x="-55.4%" y="-58.9%" width="239.0%" height="217.7%" filterUnits="objectBoundingBox" id="filter-2">
            <feMorphology radius="4" operator="dilate" in="SourceAlpha" result="shadowSpreadOuter1"></feMorphology>
            <feOffset dx="6" dy="0" in="shadowSpreadOuter1" result="shadowOffsetOuter1"></feOffset>
            <feMorphology radius="4" operator="erode" in="SourceAlpha" result="shadowInner"></feMorphology>
            <feOffset dx="6" dy="0" in="shadowInner" result="shadowInner"></feOffset>
            <feComposite in="shadowOffsetOuter1" in2="shadowInner" operator="out" result="shadowOffsetOuter1"></feComposite>
            <feGaussianBlur stdDeviation="6.5" in="shadowOffsetOuter1" result="shadowBlurOuter1"></feGaussianBlur>
            <feColorMatrix values="0 0 0 0 0.322492289   0 0 0 0 0.537006177   0 0 0 0 0.893494898  0 0 0 0.340268342 0" type="matrix" in="shadowBlurOuter1"></feColorMatrix>
        </filter>
        <path d="M268.063459,52.7460501 C271.895127,57.4973178 273.887594,63.3214524 273.887594,70.3717206 C273.887594,77.4219889 271.895127,83.0928568 268.063459,87.8441245 C263.771991,92.7486589 258.25439,95.3541928 251.204122,95.3541928 C244.153854,95.3541928 238.636253,92.7486589 234.344785,87.8441245 C230.513117,83.0928568 228.52065,77.4219889 228.52065,70.3717206 C228.52065,63.3214524 230.513117,57.4973178 234.344785,52.7460501 C238.482986,47.688249 244.153854,45.2359818 251.050855,45.2359818 C258.25439,45.2359818 263.771991,47.688249 268.063459,52.7460501 Z M238.482986,56.2711842 C235.570919,59.949585 234.191518,64.7008527 234.191518,70.3717206 C234.191518,76.0425885 235.570919,80.6405896 238.482986,84.3189904 C241.54832,88.4571913 245.839788,90.6029251 251.204122,90.6029251 C256.568457,90.6029251 261.013191,88.4571913 264.078525,84.3189904 C266.837325,80.4873229 268.369992,75.8893218 268.369992,70.3717206 C268.369992,64.7008527 266.837325,59.949585 264.078525,56.2711842 C261.013191,51.9797166 256.568457,49.9872495 251.204122,49.9872495 C245.839788,49.9872495 241.54832,51.9797166 238.482986,56.2711842 Z" id="path-3"></path>
        <filter x="-51.8%" y="-58.9%" width="230.1%" height="217.7%" filterUnits="objectBoundingBox" id="filter-4">
            <feMorphology radius="4" operator="dilate" in="SourceAlpha" result="shadowSpreadOuter1"></feMorphology>
            <feOffset dx="6" dy="0" in="shadowSpreadOuter1" result="shadowOffsetOuter1"></feOffset>
            <feMorphology radius="4" operator="erode" in="SourceAlpha" result="shadowInner"></feMorphology>
            <feOffset dx="6" dy="0" in="shadowInner" result="shadowInner"></feOffset>
            <feComposite in="shadowOffsetOuter1" in2="shadowInner" operator="out" result="shadowOffsetOuter1"></feComposite>
            <feGaussianBlur stdDeviation="6.5" in="shadowOffsetOuter1" result="shadowBlurOuter1"></feGaussianBlur>
            <feColorMatrix values="0 0 0 0 0.322492289   0 0 0 0 0.537006177   0 0 0 0 0.893494898  0 0 0 0.340268342 0" type="matrix" in="shadowBlurOuter1"></feColorMatrix>
        </filter>
        <path d="M196.94771,56.2711842 C198.633644,53.0525835 200.779378,50.6003163 203.231645,49.0676493 C205.683912,47.3817156 208.595979,46.6153821 211.81458,46.6153821 C216.719114,46.6153821 220.857315,48.1480491 223.769383,51.3666498 C226.68145,54.4319838 228.06085,58.8767181 228.06085,64.3943193 L228.06085,95.5074595 L222.543249,95.5074595 L222.543249,65.0073861 C222.543249,60.5626518 221.623649,57.0375177 219.784448,54.8917839 C217.791981,52.4395167 214.573381,51.3666498 210.281913,51.3666498 C206.756779,51.3666498 203.997978,52.5927834 201.698978,55.351584 C199.246711,57.9571179 198.173844,61.1757186 198.173844,65.1606528 L198.173844,95.3541928 L192.502976,95.3541928 L192.502976,65.0073861 C192.502976,55.8113841 188.518042,51.3666498 180.70144,51.3666498 C177.176306,51.3666498 174.110972,52.7460501 171.811971,55.6581174 C169.359704,58.5701847 168.13357,61.9420521 168.13357,66.080253 L168.13357,95.3541928 L162.615969,95.3541928 L162.615969,47.8415157 L168.13357,47.8415157 L168.13357,55.0450506 C171.505438,49.3741827 176.103439,46.6153821 181.927573,46.6153821 C189.590908,46.4621154 194.64871,49.6807161 196.94771,56.2711842 Z" id="path-5"></path>
        <filter x="-35.9%" y="-60.3%" width="190.2%" height="220.7%" filterUnits="objectBoundingBox" id="filter-6">
            <feMorphology radius="4" operator="dilate" in="SourceAlpha" result="shadowSpreadOuter1"></feMorphology>
            <feOffset dx="6" dy="0" in="shadowSpreadOuter1" result="shadowOffsetOuter1"></feOffset>
            <feMorphology radius="4" operator="erode" in="SourceAlpha" result="shadowInner"></feMorphology>
            <feOffset dx="6" dy="0" in="shadowInner" result="shadowInner"></feOffset>
            <feComposite in="shadowOffsetOuter1" in2="shadowInner" operator="out" result="shadowOffsetOuter1"></feComposite>
            <feGaussianBlur stdDeviation="6.5" in="shadowOffsetOuter1" result="shadowBlurOuter1"></feGaussianBlur>
            <feColorMatrix values="0 0 0 0 0.322492289   0 0 0 0 0.537006177   0 0 0 0 0.893494898  0 0 0 0.340268342 0" type="matrix" in="shadowBlurOuter1"></feColorMatrix>
        </filter>
        <path d="M136.713897,56.2711842 C138.399831,53.0525835 140.545564,50.6003163 142.997832,49.0676493 C145.450099,47.3817156 148.362166,46.6153821 151.580767,46.6153821 C156.485301,46.6153821 160.623502,48.1480491 163.535569,51.3666498 C166.447637,54.4319838 167.827037,58.8767181 167.827037,64.3943193 L167.827037,95.5074595 L162.462702,95.5074595 L162.462702,65.0073861 C162.462702,60.5626518 161.543102,57.0375177 159.703902,54.8917839 C157.711435,52.4395167 154.492834,51.3666498 150.201366,51.3666498 C146.676232,51.3666498 143.917432,52.5927834 141.618431,55.351584 C139.166164,57.9571179 138.093297,61.1757186 138.093297,65.1606528 L138.093297,95.3541928 L132.422429,95.3541928 L132.422429,65.0073861 C132.422429,55.8113841 128.437495,51.3666498 120.620893,51.3666498 C117.095759,51.3666498 114.030425,52.7460501 111.731425,55.6581174 C109.279157,58.5701847 108.053024,61.9420521 108.053024,66.080253 L108.053024,95.3541928 L102.535423,95.3541928 L102.535423,47.8415157 L108.053024,47.8415157 L108.053024,55.0450506 C111.424891,49.3741827 116.022892,46.6153821 121.847027,46.6153821 C129.357095,46.4621154 134.26163,49.6807161 136.713897,56.2711842 Z" id="path-7"></path>
        <filter x="-36.0%" y="-60.3%" width="190.4%" height="220.7%" filterUnits="objectBoundingBox" id="filter-8">
            <feMorphology radius="4" operator="dilate" in="SourceAlpha" result="shadowSpreadOuter1"></feMorphology>
            <feOffset dx="6" dy="0" in="shadowSpreadOuter1" result="shadowOffsetOuter1"></feOffset>
            <feMorphology radius="4" operator="erode" in="SourceAlpha" result="shadowInner"></feMorphology>
            <feOffset dx="6" dy="0" in="shadowInner" result="shadowInner"></feOffset>
            <feComposite in="shadowOffsetOuter1" in2="shadowInner" operator="out" result="shadowOffsetOuter1"></feComposite>
            <feGaussianBlur stdDeviation="6.5" in="shadowOffsetOuter1" result="shadowBlurOuter1"></feGaussianBlur>
            <feColorMatrix values="0 0 0 0 0.322492289   0 0 0 0 0.537006177   0 0 0 0 0.893494898  0 0 0 0.340268342 0" type="matrix" in="shadowBlurOuter1"></feColorMatrix>
        </filter>
        <path d="M90.4273533,28.9897115 C91.3469535,29.756045 91.8067536,30.8289119 91.8067536,32.2083122 C91.8067536,33.4344458 91.1936868,34.6605794 90.2740866,35.5801796 C89.3544864,36.3465131 88.2816195,36.8063132 87.0554859,36.8063132 C85.6760856,36.8063132 84.6032186,36.3465131 83.6836184,35.5801796 C82.7640182,34.6605794 82.3042181,33.5877125 82.3042181,32.2083122 C82.3042181,30.8289119 82.7640182,29.756045 83.6836184,28.9897115 C84.4499519,28.0701113 85.6760856,27.6103112 87.0554859,27.6103112 C88.4348862,27.6103112 89.5077531,28.0701113 90.4273533,28.9897115 Z M89.8142865,47.8415157 L89.8142865,95.3541928 L84.2966852,95.3541928 L84.2966852,47.8415157 L89.8142865,47.8415157 Z" id="path-9"></path>
        <filter x="-247.3%" y="-43.5%" width="720.9%" height="187.1%" filterUnits="objectBoundingBox" id="filter-10">
            <feMorphology radius="4" operator="dilate" in="SourceAlpha" result="shadowSpreadOuter1"></feMorphology>
            <feOffset dx="6" dy="0" in="shadowSpreadOuter1" result="shadowOffsetOuter1"></feOffset>
            <feMorphology radius="4" operator="erode" in="SourceAlpha" result="shadowInner"></feMorphology>
            <feOffset dx="6" dy="0" in="shadowInner" result="shadowInner"></feOffset>
            <feComposite in="shadowOffsetOuter1" in2="shadowInner" operator="out" result="shadowOffsetOuter1"></feComposite>
            <feGaussianBlur stdDeviation="6.5" in="shadowOffsetOuter1" result="shadowBlurOuter1"></feGaussianBlur>
            <feColorMatrix values="0 0 0 0 0.322492289   0 0 0 0 0.537006177   0 0 0 0 0.893494898  0 0 0 0.340268342 0" type="matrix" in="shadowBlurOuter1"></feColorMatrix>
        </filter>
        <path d="M61.919747,35.4269129 C66.2112146,38.952047 68.6634818,44.0098482 69.2765486,50.9068497 L63.6056807,50.9068497 C62.8393472,45.6957819 61.0001468,41.8641143 57.7815461,39.2585804 C54.7162121,36.6530465 50.2714777,35.2736462 44.6006098,35.2736462 C39.2362753,35.2736462 35.0980744,36.1932464 32.0327404,38.0324468 C28.5076063,40.0249139 26.8216726,43.2435147 26.8216726,47.3817156 C26.8216726,51.0601164 28.8141397,53.9721837 32.9523406,56.1179175 C34.9448077,57.0375177 39.0830086,58.5701847 45.52021,60.4093851 C53.9498786,62.8616523 59.4674798,64.8541194 62.3795471,66.6933198 C67.7438816,69.9119205 70.5026822,74.5099215 70.5026822,80.4873229 C70.5026822,86.1581908 68.050415,90.6029251 63.452414,93.9747925 C59.0076797,97.0401265 53.0302784,98.7260602 45.52021,98.7260602 C38.0101417,98.7260602 32.0327404,97.0401265 27.7412728,93.5149924 C22.8367384,89.5300582 20.0779378,83.5526569 19.464871,75.7360551 L24.9824722,75.7360551 C25.595539,81.8667232 27.7412728,86.4647242 31.4196736,89.5300582 C34.791541,92.1355921 39.389542,93.5149924 45.52021,93.5149924 C51.3443447,93.5149924 55.9423457,92.2888588 59.6207465,90.143125 C63.1458806,87.8441245 64.985081,84.7787905 64.985081,80.7938563 C64.985081,76.3491219 62.6860805,72.8239878 58.2413462,70.3717206 C56.0956124,69.145587 51.1910779,67.3063866 43.8342763,65.3139195 C36.0176746,63.1681857 30.9598735,61.3289853 28.8141397,60.1028517 C23.7563386,57.1907844 21.3040714,53.0525835 21.3040714,47.8415157 C21.3040714,42.1706477 23.6030719,37.8791801 28.3543396,34.8138461 C32.6458072,31.9017788 38.1634084,30.5223785 44.7538765,30.5223785 C51.9574115,30.2158451 57.6282794,31.9017788 61.919747,35.4269129 Z" id="path-11"></path>
        <filter x="-46.0%" y="-43.2%" width="215.6%" height="186.5%" filterUnits="objectBoundingBox" id="filter-12">
            <feMorphology radius="4" operator="dilate" in="SourceAlpha" result="shadowSpreadOuter1"></feMorphology>
            <feOffset dx="6" dy="0" in="shadowSpreadOuter1" result="shadowOffsetOuter1"></feOffset>
            <feMorphology radius="4" operator="erode" in="SourceAlpha" result="shadowInner"></feMorphology>
            <feOffset dx="6" dy="0" in="shadowInner" result="shadowInner"></feOffset>
            <feComposite in="shadowOffsetOuter1" in2="shadowInner" operator="out" result="shadowOffsetOuter1"></feComposite>
            <feGaussianBlur stdDeviation="6.5" in="shadowOffsetOuter1" result="shadowBlurOuter1"></feGaussianBlur>
            <feColorMatrix values="0 0 0 0 0.322492289   0 0 0 0 0.537006177   0 0 0 0 0.893494898  0 0 0 0.340268342 0" type="matrix" in="shadowBlurOuter1"></feColorMatrix>
        </filter>
    </defs>
    <g id="Page-1" stroke="none" stroke-width="1" fill="none" fill-rule="evenodd">
        <g id="Shape">
            <use fill="black" fill-opacity="1" filter="url(#filter-2)" xlink:href="#path-1"></use>
            <use stroke="#FFFFFF" stroke-width="5" xlink:href="#path-1"></use>
        </g>
        <g id="Shape">
            <use fill="black" fill-opacity="1" filter="url(#filter-4)" xlink:href="#path-3"></use>
            <use stroke="#FFFFFF" stroke-width="5" xlink:href="#path-3"></use>
        </g>
        <g id="Shape">
            <use fill="black" fill-opacity="1" filter="url(#filter-6)" xlink:href="#path-5"></use>
            <use stroke="#FFFFFF" stroke-width="5" xlink:href="#path-5"></use>
        </g>
        <g id="Shape">
            <use fill="black" fill-opacity="1" filter="url(#filter-8)" xlink:href="#path-7"></use>
            <use stroke="#FFFFFF" stroke-width="5" xlink:href="#path-7"></use>
        </g>
        <g id="Shape">
            <use fill="black" fill-opacity="1" filter="url(#filter-10)" xlink:href="#path-9"></use>
            <use stroke="#FFFFFF" stroke-width="5" xlink:href="#path-9"></use>
        </g>
        <g id="Shape">
            <use fill="black" fill-opacity="1" filter="url(#filter-12)" xlink:href="#path-11"></use>
            <use stroke="#FFFFFF" stroke-width="5" xlink:href="#path-11"></use>
        </g>
    </g>
</svg>