
<svg width="234px" height="84px" viewBox="0 0 234 84" version="1.1" xmlns="http://www.w3.org/2000/svg" xmlns:xlink="http://www.w3.org/1999/xlink">
    <!-- Generator: Sketch 49.2 (51160) - http://www.bohemiancoding.com/sketch -->
    <desc>Created with Sketch.</desc>
    <defs>
        <path d="M204.8,32.7 C207.1,34.5 208.6,37.3 209.1,41 L205.5,41 C205.1,38.4 204.1,36.4 202.4,35.1 C200.7,33.8 198.5,33.1 195.8,33.1 C192.6,33.1 189.9,34.4 188,36.9 C186.1,39.3 185.2,42.5 185.2,46.6 C185.2,50.6 186.1,53.7 187.9,56.1 C189.7,58.4 192.3,59.6 195.8,59.6 C201.6,59.6 204.9,56.7 205.8,50.8 L209.3,50.8 C208.7,54.7 207.2,57.7 204.9,59.7 C202.6,61.7 199.6,62.7 195.8,62.7 C191.2,62.7 187.6,61.1 185.1,58 C182.7,55.1 181.6,51.3 181.6,46.5 C181.6,41.8 182.8,37.9 185.3,34.9 C187.9,31.6 191.4,30 195.9,30 C199.4,30 202.4,30.9 204.8,32.7 Z" id="path-1"></path>
        <filter x="-84.8%" y="-90.2%" width="313.0%" height="280.4%" filterUnits="objectBoundingBox" id="filter-2">
            <feMorphology radius="4" operator="dilate" in="SourceAlpha" result="shadowSpreadOuter1"></feMorphology>
            <feOffset dx="6" dy="0" in="shadowSpreadOuter1" result="shadowOffsetOuter1"></feOffset>
            <feMorphology radius="4" operator="erode" in="SourceAlpha" result="shadowInner"></feMorphology>
            <feOffset dx="6" dy="0" in="shadowInner" result="shadowInner"></feOffset>
            <feComposite in="shadowOffsetOuter1" in2="shadowInner" operator="out" result="shadowOffsetOuter1"></feComposite>
            <feGaussianBlur stdDeviation="6.5" in="shadowOffsetOuter1" result="shadowBlurOuter1"></feGaussianBlur>
            <feColorMatrix values="0 0 0 0 0.322492289   0 0 0 0 0.537006177   0 0 0 0 0.893494898  0 0 0 0.340268342 0" type="matrix" in="shadowBlurOuter1"></feColorMatrix>
        </filter>
        <path d="M174.9,34.9 C177.4,38 178.7,41.8 178.7,46.4 C178.7,51 177.4,54.7 174.9,57.8 C172.1,61 168.5,62.7 163.9,62.7 C159.3,62.7 155.7,61 152.9,57.8 C150.4,54.7 149.1,51 149.1,46.4 C149.1,41.8 150.4,38 152.9,34.9 C155.6,31.6 159.3,30 163.8,30 C168.5,30 172.1,31.6 174.9,34.9 Z M155.6,37.2 C153.7,39.6 152.8,42.7 152.8,46.4 C152.8,50.1 153.7,53.1 155.6,55.5 C157.6,58.2 160.4,59.6 163.9,59.6 C167.4,59.6 170.3,58.2 172.3,55.5 C174.1,53 175.1,50 175.1,46.4 C175.1,42.7 174.1,39.6 172.3,37.2 C170.3,34.4 167.4,33.1 163.9,33.1 C160.4,33.1 157.6,34.4 155.6,37.2 Z" id="path-3"></path>
        <filter x="-79.4%" y="-90.2%" width="299.3%" height="280.4%" filterUnits="objectBoundingBox" id="filter-4">
            <feMorphology radius="4" operator="dilate" in="SourceAlpha" result="shadowSpreadOuter1"></feMorphology>
            <feOffset dx="6" dy="0" in="shadowSpreadOuter1" result="shadowOffsetOuter1"></feOffset>
            <feMorphology radius="4" operator="erode" in="SourceAlpha" result="shadowInner"></feMorphology>
            <feOffset dx="6" dy="0" in="shadowInner" result="shadowInner"></feOffset>
            <feComposite in="shadowOffsetOuter1" in2="shadowInner" operator="out" result="shadowOffsetOuter1"></feComposite>
            <feGaussianBlur stdDeviation="6.5" in="shadowOffsetOuter1" result="shadowBlurOuter1"></feGaussianBlur>
            <feColorMatrix values="0 0 0 0 0.322492289   0 0 0 0 0.537006177   0 0 0 0 0.893494898  0 0 0 0.340268342 0" type="matrix" in="shadowBlurOuter1"></feColorMatrix>
        </filter>
        <path d="M128.5,37.2 C129.6,35.1 131,33.5 132.6,32.5 C134.2,31.4 136.1,30.9 138.2,30.9 C141.4,30.9 144.1,31.9 146,34 C147.9,36 148.8,38.9 148.8,42.5 L148.8,62.8 L145.2,62.8 L145.2,42.9 C145.2,40 144.6,37.7 143.4,36.3 C142.1,34.7 140,34 137.2,34 C134.9,34 133.1,34.8 131.6,36.6 C130,38.3 129.3,40.4 129.3,43 L129.3,62.7 L125.6,62.7 L125.6,42.9 C125.6,36.9 123,34 117.9,34 C115.6,34 113.6,34.9 112.1,36.8 C110.5,38.7 109.7,40.9 109.7,43.6 L109.7,62.7 L106.1,62.7 L106.1,31.7 L109.7,31.7 L109.7,36.4 C111.9,32.7 114.9,30.9 118.7,30.9 C123.7,30.8 127,32.9 128.5,37.2 Z" id="path-5"></path>
        <filter x="-55.0%" y="-92.5%" width="238.2%" height="284.9%" filterUnits="objectBoundingBox" id="filter-6">
            <feMorphology radius="4" operator="dilate" in="SourceAlpha" result="shadowSpreadOuter1"></feMorphology>
            <feOffset dx="6" dy="0" in="shadowSpreadOuter1" result="shadowOffsetOuter1"></feOffset>
            <feMorphology radius="4" operator="erode" in="SourceAlpha" result="shadowInner"></feMorphology>
            <feOffset dx="6" dy="0" in="shadowInner" result="shadowInner"></feOffset>
            <feComposite in="shadowOffsetOuter1" in2="shadowInner" operator="out" result="shadowOffsetOuter1"></feComposite>
            <feGaussianBlur stdDeviation="6.5" in="shadowOffsetOuter1" result="shadowBlurOuter1"></feGaussianBlur>
            <feColorMatrix values="0 0 0 0 0.322492289   0 0 0 0 0.537006177   0 0 0 0 0.893494898  0 0 0 0.340268342 0" type="matrix" in="shadowBlurOuter1"></feColorMatrix>
        </filter>
        <path d="M89.2,37.2 C90.3,35.1 91.7,33.5 93.3,32.5 C94.9,31.4 96.8,30.9 98.9,30.9 C102.1,30.9 104.8,31.9 106.7,34 C108.6,36 109.5,38.9 109.5,42.5 L109.5,62.8 L106,62.8 L106,42.9 C106,40 105.4,37.7 104.2,36.3 C102.9,34.7 100.8,34 98,34 C95.7,34 93.9,34.8 92.4,36.6 C90.8,38.3 90.1,40.4 90.1,43 L90.1,62.7 L86.4,62.7 L86.4,42.9 C86.4,36.9 83.8,34 78.7,34 C76.4,34 74.4,34.9 72.9,36.8 C71.3,38.7 70.5,40.9 70.5,43.6 L70.5,62.7 L66.9,62.7 L66.9,31.7 L70.5,31.7 L70.5,36.4 C72.7,32.7 75.7,30.9 79.5,30.9 C84.4,30.8 87.6,32.9 89.2,37.2 Z" id="path-7"></path>
        <filter x="-55.2%" y="-92.5%" width="238.5%" height="284.9%" filterUnits="objectBoundingBox" id="filter-8">
            <feMorphology radius="4" operator="dilate" in="SourceAlpha" result="shadowSpreadOuter1"></feMorphology>
            <feOffset dx="6" dy="0" in="shadowSpreadOuter1" result="shadowOffsetOuter1"></feOffset>
            <feMorphology radius="4" operator="erode" in="SourceAlpha" result="shadowInner"></feMorphology>
            <feOffset dx="6" dy="0" in="shadowInner" result="shadowInner"></feOffset>
            <feComposite in="shadowOffsetOuter1" in2="shadowInner" operator="out" result="shadowOffsetOuter1"></feComposite>
            <feGaussianBlur stdDeviation="6.5" in="shadowOffsetOuter1" result="shadowBlurOuter1"></feGaussianBlur>
            <feColorMatrix values="0 0 0 0 0.322492289   0 0 0 0 0.537006177   0 0 0 0 0.893494898  0 0 0 0.340268342 0" type="matrix" in="shadowBlurOuter1"></feColorMatrix>
        </filter>
        <path d="M59,19.4 C59.6,19.9 59.9,20.6 59.9,21.5 C59.9,22.3 59.5,23.1 58.9,23.7 C58.3,24.2 57.6,24.5 56.8,24.5 C55.9,24.5 55.2,24.2 54.6,23.7 C54,23.1 53.7,22.4 53.7,21.5 C53.7,20.6 54,19.9 54.6,19.4 C55.1,18.8 55.9,18.5 56.8,18.5 C57.7,18.5 58.4,18.8 59,19.4 Z M58.6,31.7 L58.6,62.7 L55,62.7 L55,31.7 L58.6,31.7 Z" id="path-9"></path>
        <filter x="-379.0%" y="-66.7%" width="1051.6%" height="233.5%" filterUnits="objectBoundingBox" id="filter-10">
            <feMorphology radius="4" operator="dilate" in="SourceAlpha" result="shadowSpreadOuter1"></feMorphology>
            <feOffset dx="6" dy="0" in="shadowSpreadOuter1" result="shadowOffsetOuter1"></feOffset>
            <feMorphology radius="4" operator="erode" in="SourceAlpha" result="shadowInner"></feMorphology>
            <feOffset dx="6" dy="0" in="shadowInner" result="shadowInner"></feOffset>
            <feComposite in="shadowOffsetOuter1" in2="shadowInner" operator="out" result="shadowOffsetOuter1"></feComposite>
            <feGaussianBlur stdDeviation="6.5" in="shadowOffsetOuter1" result="shadowBlurOuter1"></feGaussianBlur>
            <feColorMatrix values="0 0 0 0 0.322492289   0 0 0 0 0.537006177   0 0 0 0 0.893494898  0 0 0 0.340268342 0" type="matrix" in="shadowBlurOuter1"></feColorMatrix>
        </filter>
        <path d="M40.4,23.6 C43.2,25.9 44.8,29.2 45.2,33.7 L41.5,33.7 C41,30.3 39.8,27.8 37.7,26.1 C35.7,24.4 32.8,23.5 29.1,23.5 C25.6,23.5 22.9,24.1 20.9,25.3 C18.6,26.6 17.5,28.7 17.5,31.4 C17.5,33.8 18.8,35.7 21.5,37.1 C22.8,37.7 25.5,38.7 29.7,39.9 C35.2,41.5 38.8,42.8 40.7,44 C44.2,46.1 46,49.1 46,53 C46,56.7 44.4,59.6 41.4,61.8 C38.5,63.8 34.6,64.9 29.7,64.9 C24.8,64.9 20.9,63.8 18.1,61.5 C14.9,58.9 13.1,55 12.7,49.9 L16.3,49.9 C16.7,53.9 18.1,56.9 20.5,58.9 C22.7,60.6 25.7,61.5 29.7,61.5 C33.5,61.5 36.5,60.7 38.9,59.3 C41.2,57.8 42.4,55.8 42.4,53.2 C42.4,50.3 40.9,48 38,46.4 C36.6,45.6 33.4,44.4 28.6,43.1 C23.5,41.7 20.2,40.5 18.8,39.7 C15.5,37.8 13.9,35.1 13.9,31.7 C13.9,28 15.4,25.2 18.5,23.2 C21.3,21.3 24.9,20.4 29.2,20.4 C33.9,20.2 37.6,21.3 40.4,23.6 Z" id="path-11"></path>
        <filter x="-70.6%" y="-66.3%" width="277.2%" height="232.5%" filterUnits="objectBoundingBox" id="filter-12">
            <feMorphology radius="4" operator="dilate" in="SourceAlpha" result="shadowSpreadOuter1"></feMorphology>
            <feOffset dx="6" dy="0" in="shadowSpreadOuter1" result="shadowOffsetOuter1"></feOffset>
            <feMorphology radius="4" operator="erode" in="SourceAlpha" result="shadowInner"></feMorphology>
            <feOffset dx="6" dy="0" in="shadowInner" result="shadowInner"></feOffset>
            <feComposite in="shadowOffsetOuter1" in2="shadowInner" operator="out" result="shadowOffsetOuter1"></feComposite>
            <feGaussianBlur stdDeviation="6.5" in="shadowOffsetOuter1" result="shadowBlurOuter1"></feGaussianBlur>
            <feColorMatrix values="0 0 0 0 0.322492289   0 0 0 0 0.537006177   0 0 0 0 0.893494898  0 0 0 0.340268342 0" type="matrix" in="shadowBlurOuter1"></feColorMatrix>
        </filter>
    </defs>
    <g id="Page-1" stroke="none" stroke-width="1" fill="none" fill-rule="evenodd">
        <g id="Shape">
            <use fill="black" fill-opacity="1" filter="url(#filter-2)" xlink:href="#path-1"></use>
            <use stroke="#FFFFFF" stroke-width="5" xlink:href="#path-1"></use>
        </g>
        <g id="Shape">
            <use fill="black" fill-opacity="1" filter="url(#filter-4)" xlink:href="#path-3"></use>
            <use stroke="#FFFFFF" stroke-width="5" xlink:href="#path-3"></use>
        </g>
        <g id="Shape">
            <use fill="black" fill-opacity="1" filter="url(#filter-6)" xlink:href="#path-5"></use>
            <use stroke="#FFFFFF" stroke-width="5" xlink:href="#path-5"></use>
        </g>
        <g id="Shape">
            <use fill="black" fill-opacity="1" filter="url(#filter-8)" xlink:href="#path-7"></use>
            <use stroke="#FFFFFF" stroke-width="5" xlink:href="#path-7"></use>
        </g>
        <g id="Shape">
            <use fill="black" fill-opacity="1" filter="url(#filter-10)" xlink:href="#path-9"></use>
            <use stroke="#FFFFFF" stroke-width="5" xlink:href="#path-9"></use>
        </g>
        <g id="Shape">
            <use fill="black" fill-opacity="1" filter="url(#filter-12)" xlink:href="#path-11"></use>
            <use stroke="#FFFFFF" stroke-width="5" xlink:href="#path-11"></use>
        </g>
    </g>
</svg>