<?xml version="1.0" encoding="utf-8"?>
<!-- Generator: Adobe Illustrator 22.1.0, SVG Export Plug-In . SVG Version: 6.00 Build 0)  -->
<svg version="1.1" id="图层_1" xmlns="http://www.w3.org/2000/svg" xmlns:xlink="http://www.w3.org/1999/xlink" x="0px" y="0px"
	 viewBox="0 0 99 67" style="enable-background:new 0 0 99 67;" xml:space="preserve">
<style type="text/css">
	.st0{fill:url(#SVGID_1_);}
	.st1{fill:url(#SVGID_2_);}
	.st2{fill:url(#SVGID_3_);}
	.st3{fill:url(#SVGID_4_);}
	.st4{fill:url(#SVGID_5_);}
	.st5{fill:url(#SVGID_6_);}
	.st6{fill:url(#SVGID_7_);}
	.st7{fill:url(#SVGID_8_);}
	.st8{fill:url(#SVGID_9_);}
	.st9{fill:url(#SVGID_10_);}
	.st10{fill:url(#SVGID_11_);}
	.st11{fill:url(#SVGID_12_);}
	.st12{fill:url(#SVGID_13_);}
	.st13{fill:url(#SVGID_14_);}
</style>
<title>Combined Shape</title>
<desc>Created with Sketch.</desc>
<g>
	<g>
		<g>
			<g>
				<linearGradient id="SVGID_1_" gradientUnits="userSpaceOnUse" x1="2.0649" y1="30.6399" x2="96.9351" y2="30.6399">
					<stop  offset="0" style="stop-color:#77B7E5"/>
					<stop  offset="8.506916e-02" style="stop-color:#6EB2E2"/>
					<stop  offset="0.2265" style="stop-color:#54A4DA"/>
					<stop  offset="0.4057" style="stop-color:#2B8DCD"/>
					<stop  offset="0.5674" style="stop-color:#0076BF"/>
					<stop  offset="1" style="stop-color:#004DA1"/>
				</linearGradient>
				<path class="st0" d="M87.6,33.1c0,1.4,0.3,2.5,0.9,3.3c0.6,0.8,1.4,1.2,2.5,1.2c1.9,0,2.9-1,3.2-2.8h2.8c-0.3,1.8-1,3.1-2,3.9
					c-1,0.8-2.4,1.2-4,1.2c-2,0-3.6-0.7-4.7-2c-1.1-1.2-1.6-2.9-1.6-4.9c0-2,0.5-3.5,1.6-4.8c1.1-1.4,2.7-2,4.7-2c1.7,0,3,0.4,4,1.1
					c1,0.8,1.7,2,1.9,3.6h-2.8c-0.2-0.8-0.5-1.4-1-1.8c-0.5-0.4-1.2-0.6-2.1-0.6c-1,0-1.9,0.4-2.5,1.2
					C87.9,30.6,87.6,31.7,87.6,33.1z"/>
				<linearGradient id="SVGID_2_" gradientUnits="userSpaceOnUse" x1="2.0649" y1="30.6399" x2="96.9351" y2="30.6399">
					<stop  offset="0" style="stop-color:#77B7E5"/>
					<stop  offset="8.506916e-02" style="stop-color:#6EB2E2"/>
					<stop  offset="0.2265" style="stop-color:#54A4DA"/>
					<stop  offset="0.4057" style="stop-color:#2B8DCD"/>
					<stop  offset="0.5674" style="stop-color:#0076BF"/>
					<stop  offset="1" style="stop-color:#004DA1"/>
				</linearGradient>
				<path class="st1" d="M78.9,36.2c0.5-0.8,0.8-1.8,0.8-3.1c0-1.2-0.3-2.3-0.8-3.1c-0.7-0.9-1.6-1.4-2.8-1.4
					c-1.2,0-2.1,0.4-2.8,1.4c-0.6,0.8-0.8,1.9-0.8,3.1s0.3,2.3,0.8,3.1c0.6,0.9,1.5,1.4,2.8,1.4C77.3,37.6,78.3,37.1,78.9,36.2z
					 M82.7,33.1c0,2-0.6,3.6-1.8,4.8c-1.2,1.3-2.8,2-4.8,2c-2,0-3.6-0.7-4.8-2c-1.2-1.2-1.8-2.9-1.8-4.8c0-2,0.6-3.6,1.8-4.9
					c1.2-1.3,2.8-1.9,4.7-1.9c1.9,0,3.5,0.6,4.7,1.9C82.1,29.5,82.7,31.1,82.7,33.1z"/>
				<linearGradient id="SVGID_3_" gradientUnits="userSpaceOnUse" x1="2.0649" y1="30.6399" x2="96.9351" y2="30.6399">
					<stop  offset="0" style="stop-color:#77B7E5"/>
					<stop  offset="8.506916e-02" style="stop-color:#6EB2E2"/>
					<stop  offset="0.2265" style="stop-color:#54A4DA"/>
					<stop  offset="0.4057" style="stop-color:#2B8DCD"/>
					<stop  offset="0.5674" style="stop-color:#0076BF"/>
					<stop  offset="1" style="stop-color:#004DA1"/>
				</linearGradient>
				<path class="st2" d="M58.5,28.4c0.6-0.8,1.2-1.3,1.9-1.6c0.6-0.3,1.3-0.4,2.2-0.4c1.3,0,2.4,0.4,3.3,1.3c0.8,0.9,1.3,2,1.3,3.5
					v8.5h-2.9v-8c0-1-0.2-1.8-0.6-2.2c-0.5-0.5-1.2-0.7-2.2-0.7c-0.7,0-1.3,0.2-1.8,0.8C59.3,30,59,30.7,59,31.7v7.9h-2.9v-8
					c0-2-0.8-2.9-2.5-2.9c-0.8,0-1.5,0.3-2,0.9c-0.5,0.6-0.8,1.4-0.8,2.2v7.8h-2.8V26.6h2.8V28c1.1-1.1,2.2-1.7,3.5-1.7
					C56.3,26.3,57.7,27,58.5,28.4z"/>
				<linearGradient id="SVGID_4_" gradientUnits="userSpaceOnUse" x1="2.0649" y1="30.6399" x2="96.9351" y2="30.6399">
					<stop  offset="0" style="stop-color:#77B7E5"/>
					<stop  offset="8.506916e-02" style="stop-color:#6EB2E2"/>
					<stop  offset="0.2265" style="stop-color:#54A4DA"/>
					<stop  offset="0.4057" style="stop-color:#2B8DCD"/>
					<stop  offset="0.5674" style="stop-color:#0076BF"/>
					<stop  offset="1" style="stop-color:#004DA1"/>
				</linearGradient>
				<path class="st3" d="M45.1,31.1v8.5h-2.9v-8c0-1-0.2-1.8-0.6-2.2c-0.5-0.5-1.2-0.7-2.2-0.7c-0.7,0-1.3,0.2-1.8,0.8
					c-0.5,0.5-0.7,1.2-0.7,2.2v7.9h-2.8v-8c0-2-0.8-2.9-2.5-2.9c-0.8,0-1.5,0.3-2,0.9c-0.5,0.6-0.8,1.4-0.8,2.2v7.8H26V26.6h2.9V28
					c1.1-1.1,2.2-1.7,3.5-1.7c1.9,0,3.2,0.7,4.1,2.1c0.6-0.8,1.2-1.3,1.9-1.6c0.6-0.3,1.3-0.4,2.2-0.4c1.3,0,2.4,0.4,3.3,1.3
					C44.6,28.5,45.1,29.7,45.1,31.1z"/>
				<linearGradient id="SVGID_5_" gradientUnits="userSpaceOnUse" x1="2.0649" y1="30.6399" x2="96.9351" y2="30.6399">
					<stop  offset="0" style="stop-color:#77B7E5"/>
					<stop  offset="8.506916e-02" style="stop-color:#6EB2E2"/>
					<stop  offset="0.2265" style="stop-color:#54A4DA"/>
					<stop  offset="0.4057" style="stop-color:#2B8DCD"/>
					<stop  offset="0.5674" style="stop-color:#0076BF"/>
					<stop  offset="1" style="stop-color:#004DA1"/>
				</linearGradient>
				<rect x="19.6" y="26.6" class="st4" width="2.8" height="12.9"/>
				<linearGradient id="SVGID_6_" gradientUnits="userSpaceOnUse" x1="2.0649" y1="30.6399" x2="96.9351" y2="30.6399">
					<stop  offset="0" style="stop-color:#77B7E5"/>
					<stop  offset="8.506916e-02" style="stop-color:#6EB2E2"/>
					<stop  offset="0.2265" style="stop-color:#54A4DA"/>
					<stop  offset="0.4057" style="stop-color:#2B8DCD"/>
					<stop  offset="0.5674" style="stop-color:#0076BF"/>
					<stop  offset="1" style="stop-color:#004DA1"/>
				</linearGradient>
				<path class="st5" d="M22.4,21.9c0.4,0.4,0.5,0.8,0.5,1.4c0,0.6-0.2,1-0.6,1.4C22,25,21.6,25.1,21,25.1c-0.6,0-1-0.2-1.4-0.5
					c-0.4-0.4-0.5-0.8-0.5-1.4c0-0.5,0.2-1,0.5-1.4c0.4-0.3,0.8-0.5,1.4-0.5C21.6,21.4,22,21.5,22.4,21.9z"/>
				<linearGradient id="SVGID_7_" gradientUnits="userSpaceOnUse" x1="2.0649" y1="30.6399" x2="96.9351" y2="30.6399">
					<stop  offset="0" style="stop-color:#77B7E5"/>
					<stop  offset="8.506916e-02" style="stop-color:#6EB2E2"/>
					<stop  offset="0.2265" style="stop-color:#54A4DA"/>
					<stop  offset="0.4057" style="stop-color:#2B8DCD"/>
					<stop  offset="0.5674" style="stop-color:#0076BF"/>
					<stop  offset="1" style="stop-color:#004DA1"/>
				</linearGradient>
				<path class="st6" d="M14.5,30.9c1.5,0.9,2.3,2.2,2.3,3.9c0,1.6-0.6,2.9-1.9,3.8c-1.2,0.9-3,1.4-5.3,1.4c-2.2,0-3.9-0.4-5.1-1.3
					c-1.5-1-2.3-2.7-2.5-5H5C5.2,35,5.6,36,6.4,36.6c0.7,0.5,1.8,0.8,3.2,0.8c1.3,0,2.4-0.2,3.1-0.7c0.8-0.4,1.1-1,1.1-1.8
					c0-1-0.6-1.7-1.7-2.2c-0.3-0.2-1.5-0.6-3.5-1.2c-2.2-0.7-3.6-1.2-4.1-1.5c-1.4-0.8-2-2-2-3.6c0-1.6,0.7-2.8,2-3.7
					c1.2-0.9,2.8-1.3,4.7-1.3c2.1,0,3.8,0.4,4.9,1.3c1.2,0.9,2,2.4,2.2,4.3h-2.9c-0.2-1.1-0.7-1.9-1.4-2.4c-0.6-0.5-1.6-0.7-2.9-0.7
					c-1.1,0-2,0.2-2.6,0.5c-0.8,0.4-1.1,1-1.1,1.8c0,0.8,0.4,1.4,1.2,1.8c0.4,0.2,1.4,0.6,3.1,1.1C12.3,29.9,13.8,30.5,14.5,30.9z"
					/>
			</g>
		</g>
	</g>
	<g>
		<g>
			<g>
				<linearGradient id="SVGID_8_" gradientUnits="userSpaceOnUse" x1="84.66" y1="33.1" x2="96.94" y2="33.1">
					<stop  offset="0" style="stop-color:#77B7E5"/>
					<stop  offset="8.506916e-02" style="stop-color:#6EB2E2"/>
					<stop  offset="0.2265" style="stop-color:#54A4DA"/>
					<stop  offset="0.4057" style="stop-color:#2B8DCD"/>
					<stop  offset="0.5674" style="stop-color:#0076BF"/>
					<stop  offset="1" style="stop-color:#004DA1"/>
				</linearGradient>
				<path class="st7" d="M87.6,33.1c0,1.4,0.3,2.5,0.9,3.3c0.6,0.8,1.4,1.2,2.5,1.2c1.9,0,2.9-1,3.2-2.8h2.8c-0.3,1.8-1,3.1-2,3.9
					c-1,0.8-2.4,1.2-4,1.2c-2,0-3.6-0.7-4.7-2c-1.1-1.2-1.6-2.9-1.6-4.9c0-2,0.5-3.5,1.6-4.8c1.1-1.4,2.7-2,4.7-2c1.7,0,3,0.4,4,1.1
					c1,0.8,1.7,2,1.9,3.6h-2.8c-0.2-0.8-0.5-1.4-1-1.8c-0.5-0.4-1.2-0.6-2.1-0.6c-1,0-1.9,0.4-2.5,1.2
					C87.9,30.6,87.6,31.7,87.6,33.1z"/>
				<linearGradient id="SVGID_9_" gradientUnits="userSpaceOnUse" x1="69.66" y1="33.1" x2="82.66" y2="33.1">
					<stop  offset="0" style="stop-color:#77B7E5"/>
					<stop  offset="8.506916e-02" style="stop-color:#6EB2E2"/>
					<stop  offset="0.2265" style="stop-color:#54A4DA"/>
					<stop  offset="0.4057" style="stop-color:#2B8DCD"/>
					<stop  offset="0.5674" style="stop-color:#0076BF"/>
					<stop  offset="1" style="stop-color:#004DA1"/>
				</linearGradient>
				<path class="st8" d="M78.9,36.2c0.5-0.8,0.8-1.8,0.8-3.1c0-1.2-0.3-2.3-0.8-3.1c-0.7-0.9-1.6-1.4-2.8-1.4
					c-1.2,0-2.1,0.4-2.8,1.4c-0.6,0.8-0.8,1.9-0.8,3.1s0.3,2.3,0.8,3.1c0.6,0.9,1.5,1.4,2.8,1.4C77.3,37.6,78.3,37.1,78.9,36.2z
					 M82.7,33.1c0,2-0.6,3.6-1.8,4.8c-1.2,1.3-2.8,2-4.8,2c-2,0-3.6-0.7-4.8-2c-1.2-1.2-1.8-2.9-1.8-4.8c0-2,0.6-3.6,1.8-4.9
					c1.2-1.3,2.8-1.9,4.7-1.9c1.9,0,3.5,0.6,4.7,1.9C82.1,29.5,82.7,31.1,82.7,33.1z"/>
				<linearGradient id="SVGID_10_" gradientUnits="userSpaceOnUse" x1="48.06" y1="32.925" x2="67.16" y2="32.925">
					<stop  offset="0" style="stop-color:#77B7E5"/>
					<stop  offset="8.506916e-02" style="stop-color:#6EB2E2"/>
					<stop  offset="0.2265" style="stop-color:#54A4DA"/>
					<stop  offset="0.4057" style="stop-color:#2B8DCD"/>
					<stop  offset="0.5674" style="stop-color:#0076BF"/>
					<stop  offset="1" style="stop-color:#004DA1"/>
				</linearGradient>
				<path class="st9" d="M58.5,28.4c0.6-0.8,1.2-1.3,1.9-1.6c0.6-0.3,1.3-0.4,2.2-0.4c1.3,0,2.4,0.4,3.3,1.3c0.8,0.9,1.3,2,1.3,3.5
					v8.5h-2.9v-8c0-1-0.2-1.8-0.6-2.2c-0.5-0.5-1.2-0.7-2.2-0.7c-0.7,0-1.3,0.2-1.8,0.8C59.3,30,59,30.7,59,31.7v7.9h-2.9v-8
					c0-2-0.8-2.9-2.5-2.9c-0.8,0-1.5,0.3-2,0.9c-0.5,0.6-0.8,1.4-0.8,2.2v7.8h-2.8V26.6h2.8V28c1.1-1.1,2.2-1.7,3.5-1.7
					C56.3,26.3,57.7,27,58.5,28.4z"/>
				<linearGradient id="SVGID_11_" gradientUnits="userSpaceOnUse" x1="25.96" y1="32.925" x2="45.06" y2="32.925">
					<stop  offset="0" style="stop-color:#77B7E5"/>
					<stop  offset="8.506916e-02" style="stop-color:#6EB2E2"/>
					<stop  offset="0.2265" style="stop-color:#54A4DA"/>
					<stop  offset="0.4057" style="stop-color:#2B8DCD"/>
					<stop  offset="0.5674" style="stop-color:#0076BF"/>
					<stop  offset="1" style="stop-color:#004DA1"/>
				</linearGradient>
				<path class="st10" d="M45.1,31.1v8.5h-2.9v-8c0-1-0.2-1.8-0.6-2.2c-0.5-0.5-1.2-0.7-2.2-0.7c-0.7,0-1.3,0.2-1.8,0.8
					c-0.5,0.5-0.7,1.2-0.7,2.2v7.9h-2.8v-8c0-2-0.8-2.9-2.5-2.9c-0.8,0-1.5,0.3-2,0.9c-0.5,0.6-0.8,1.4-0.8,2.2v7.8H26V26.6h2.9V28
					c1.1-1.1,2.2-1.7,3.5-1.7c1.9,0,3.2,0.7,4.1,2.1c0.6-0.8,1.2-1.3,1.9-1.6c0.6-0.3,1.3-0.4,2.2-0.4c1.3,0,2.4,0.4,3.3,1.3
					C44.6,28.5,45.1,29.7,45.1,31.1z"/>
				<linearGradient id="SVGID_12_" gradientUnits="userSpaceOnUse" x1="19.59" y1="33.1" x2="22.44" y2="33.1">
					<stop  offset="0" style="stop-color:#77B7E5"/>
					<stop  offset="8.506916e-02" style="stop-color:#6EB2E2"/>
					<stop  offset="0.2265" style="stop-color:#54A4DA"/>
					<stop  offset="0.4057" style="stop-color:#2B8DCD"/>
					<stop  offset="0.5674" style="stop-color:#0076BF"/>
					<stop  offset="1" style="stop-color:#004DA1"/>
				</linearGradient>
				<rect x="19.6" y="26.6" class="st11" width="2.8" height="12.9"/>
				<linearGradient id="SVGID_13_" gradientUnits="userSpaceOnUse" x1="19.09" y1="23.255" x2="22.96" y2="23.255">
					<stop  offset="0" style="stop-color:#77B7E5"/>
					<stop  offset="8.506916e-02" style="stop-color:#6EB2E2"/>
					<stop  offset="0.2265" style="stop-color:#54A4DA"/>
					<stop  offset="0.4057" style="stop-color:#2B8DCD"/>
					<stop  offset="0.5674" style="stop-color:#0076BF"/>
					<stop  offset="1" style="stop-color:#004DA1"/>
				</linearGradient>
				<path class="st12" d="M22.4,21.9c0.4,0.4,0.5,0.8,0.5,1.4c0,0.6-0.2,1-0.6,1.4C22,25,21.6,25.1,21,25.1c-0.6,0-1-0.2-1.4-0.5
					c-0.4-0.4-0.5-0.8-0.5-1.4c0-0.5,0.2-1,0.5-1.4c0.4-0.3,0.8-0.5,1.4-0.5C21.6,21.4,22,21.5,22.4,21.9z"/>
				<linearGradient id="SVGID_14_" gradientUnits="userSpaceOnUse" x1="2.06" y1="30.64" x2="16.84" y2="30.64">
					<stop  offset="0" style="stop-color:#77B7E5"/>
					<stop  offset="8.506916e-02" style="stop-color:#6EB2E2"/>
					<stop  offset="0.2265" style="stop-color:#54A4DA"/>
					<stop  offset="0.4057" style="stop-color:#2B8DCD"/>
					<stop  offset="0.5674" style="stop-color:#0076BF"/>
					<stop  offset="1" style="stop-color:#004DA1"/>
				</linearGradient>
				<path class="st13" d="M14.5,30.9c1.5,0.9,2.3,2.2,2.3,3.9c0,1.6-0.6,2.9-1.9,3.8c-1.2,0.9-3,1.4-5.3,1.4c-2.2,0-3.9-0.4-5.1-1.3
					c-1.5-1-2.3-2.7-2.5-5H5C5.2,35,5.6,36,6.4,36.6c0.7,0.5,1.8,0.8,3.2,0.8c1.3,0,2.4-0.2,3.1-0.7c0.8-0.4,1.1-1,1.1-1.8
					c0-1-0.6-1.7-1.7-2.2c-0.3-0.2-1.5-0.6-3.5-1.2c-2.2-0.7-3.6-1.2-4.1-1.5c-1.4-0.8-2-2-2-3.6c0-1.6,0.7-2.8,2-3.7
					c1.2-0.9,2.8-1.3,4.7-1.3c2.1,0,3.8,0.4,4.9,1.3c1.2,0.9,2,2.4,2.2,4.3h-2.9c-0.2-1.1-0.7-1.9-1.4-2.4c-0.6-0.5-1.6-0.7-2.9-0.7
					c-1.1,0-2,0.2-2.6,0.5c-0.8,0.4-1.1,1-1.1,1.8c0,0.8,0.4,1.4,1.2,1.8c0.4,0.2,1.4,0.6,3.1,1.1C12.3,29.9,13.8,30.5,14.5,30.9z"
					/>
			</g>
		</g>
	</g>
</g>
</svg>
